<svg width="20" height="18" viewBox="0 0 20 18" fill="none" xmlns="http://www.w3.org/2000/svg">
<path d="M9.87495 17.7581C14.9299 17.7581 19.0277 14.0067 19.0277 9.37904C19.0277 4.75142 14.9299 1 9.87495 1C4.82001 1 0.722168 4.75142 0.722168 9.37904C0.722168 14.0067 4.82001 17.7581 9.87495 17.7581Z" stroke="#FF78C7" stroke-width="0.408184" stroke-linecap="round"/>
<path d="M6.51871 6.72766V12.0308C6.51871 12.2635 6.72422 12.4515 6.97833 12.4515H12.7711C13.0253 12.4515 13.2308 12.2634 13.2308 12.0308V6.72766C13.2308 6.49496 13.0252 6.3069 12.7711 6.3069H6.97833C6.72414 6.3069 6.51871 6.49504 6.51871 6.72766ZM5.29834 6.72766C5.29834 5.87812 6.05003 5.1897 6.97833 5.1897H12.7711C13.6991 5.1897 14.4511 5.87785 14.4511 6.72766V12.0308C14.4511 12.8803 13.6994 13.5687 12.7711 13.5687H6.97833C6.05034 13.5687 5.29834 12.8806 5.29834 12.0308V6.72766Z" fill="url(#paint0_linear_33_469)"/>
<path d="M10.0275 11.3348C8.9323 11.3348 8.04443 10.522 8.04443 9.51932C8.04443 8.51667 8.9323 7.70386 10.0275 7.70386C11.1228 7.70386 12.0106 8.51667 12.0106 9.51932C12.0106 10.522 11.1228 11.3348 10.0275 11.3348ZM10.0275 10.2176C10.4488 10.2176 10.7903 9.90495 10.7903 9.51932C10.7903 9.13368 10.4488 8.82106 10.0275 8.82106C9.60629 8.82106 9.26481 9.13368 9.26481 9.51932C9.26481 9.90495 9.60629 10.2176 10.0275 10.2176Z" fill="url(#paint1_linear_33_469)"/>
<path d="M12.1632 7.70363C12.416 7.70363 12.6208 7.51606 12.6208 7.28467C12.6208 7.05329 12.416 6.86572 12.1632 6.86572C11.9105 6.86572 11.7056 7.05329 11.7056 7.28467C11.7056 7.51606 11.9105 7.70363 12.1632 7.70363Z" fill="url(#paint2_linear_33_469)"/>
<defs>
<linearGradient id="paint0_linear_33_469" x1="-1.71456" y1="-2.2442" x2="11.6154" y2="15.8893" gradientUnits="userSpaceOnUse">
<stop offset="0.0239582" stop-color="#FF0C9A" stop-opacity="0.94"/>
<stop offset="1" stop-color="#8C2B31"/>
</linearGradient>
<linearGradient id="paint1_linear_33_469" x1="5.00551" y1="4.4825" x2="10.7818" y2="12.3403" gradientUnits="userSpaceOnUse">
<stop offset="0.0239582" stop-color="#FF0C9A" stop-opacity="0.94"/>
<stop offset="1" stop-color="#8C2B31"/>
</linearGradient>
<linearGradient id="paint2_linear_33_469" x1="11.0043" y1="6.12233" x2="12.3373" y2="7.93568" gradientUnits="userSpaceOnUse">
<stop offset="0.0239582" stop-color="#FF0C9A" stop-opacity="0.94"/>
<stop offset="1" stop-color="#8C2B31"/>
</linearGradient>
</defs>
</svg>
