<svg width="20" height="18" viewBox="0 0 20 18" fill="none" xmlns="http://www.w3.org/2000/svg">
<path d="M9.80992 17.7581C14.8972 17.7581 19.0212 14.0067 19.0212 9.37904C19.0212 4.75142 14.8972 1 9.80992 1C4.72267 1 0.598633 4.75142 0.598633 9.37904C0.598633 14.0067 4.72267 17.7581 9.80992 17.7581Z" stroke="#0A3586" stroke-width="0.408184" stroke-linecap="round"/>
<path fill-rule="evenodd" clip-rule="evenodd" d="M12.4606 9.52013C12.4606 8.954 11.967 8.50411 11.4174 8.50411C10.9975 8.50411 10.6262 8.50412 10.3796 8.97801C10.334 9.0655 10.2813 9.32025 10.2813 9.44625V11.8929H8.94714V8.78521V7.25236H10.3326L10.4009 7.85688H10.4308C10.6308 7.56963 11.0854 7.25236 11.9056 7.25236C12.9054 7.25236 13.8016 7.95802 13.8016 9.25153V11.8929H12.4606V9.52013ZM7.15077 6.70085C6.71428 6.70085 6.43262 6.42544 6.43262 6.08514C6.43262 5.73656 6.7234 5.46899 7.16869 5.46899C7.61397 5.46899 7.88684 5.73642 7.89596 6.08514C7.89612 6.42544 7.61413 6.70085 7.15077 6.70085ZM6.59334 11.8929V7.25236H7.7648V11.8929H6.59334Z" fill="#0A3586"/>
</svg>
