<svg width="21" height="18" viewBox="0 0 21 18" fill="none" xmlns="http://www.w3.org/2000/svg">
<path d="M10.4537 17.7417C15.6748 17.7417 19.9074 13.9903 19.9074 9.36268C19.9074 4.73507 15.6748 0.983643 10.4537 0.983643C5.23256 0.983643 1 4.73507 1 9.36268C1 13.9903 5.23256 17.7417 10.4537 17.7417Z" stroke="#5EA7FF" stroke-width="0.408184" stroke-linecap="round"/>
<path fill-rule="evenodd" clip-rule="evenodd" d="M14.7123 7.0995C14.7123 7.0995 15.4959 7.0448 15.8103 6.83746C15.8103 6.83746 15.735 7.07615 14.7921 7.83132C14.7921 7.83132 15.1095 11.9061 10.2723 12.9041C10.2723 12.9041 7.81917 13.3671 6.0415 12.186C6.0415 12.186 7.90242 12.4786 8.9494 11.4554C8.9494 11.4554 7.59887 11.4675 7.17173 10.2501C7.17173 10.2501 7.68166 10.3474 7.98474 10.2257C7.98474 10.2257 6.45496 9.94546 6.48256 8.47218C6.48256 8.47218 6.89602 8.74016 7.26797 8.6914C7.26797 8.6914 5.89008 7.65615 6.74436 6.36583C6.74436 6.36583 8.59067 8.29476 10.879 8.18023C10.8391 8.04214 10.8175 7.8975 10.8175 7.74794C10.8175 6.78891 11.698 6.01099 12.7839 6.01099C13.3326 6.01099 13.8288 6.20972 14.1857 6.52994C14.4473 6.53383 14.9853 6.49265 15.5225 6.15276C15.5225 6.15297 15.5534 6.52441 14.7123 7.0995Z" fill="#5EA7FF"/>
</svg>
